PathFileType	4	(X/Y/Z)	/Users/niels/Desktop/University/Third Semester/Perception and Action/Exam/Gymnastics Motion Tracking/Code for Gym Tracking/Analyzed Data/Webcam_Backflip/id4_3_pure_Sports2D/id4_3_pure_Sports2D_px_person00.trc
DataRate	CameraRate	NumFrames	NumMarkers	Units	OrigDataRate	OrigDataStartFrame	OrigNumFrames
29.81132075471698	29.81132075471698	11	22	m	29.81132075471698	99	159
Frame#	Time	Hip			RHip			RKnee			RAnkle			RBigToe			RSmallToe			RHeel			LHip			LKnee			LAnkle			LBigToe			LSmallToe			LHeel			Neck			Head			Nose			RShoulder			RElbow			RWrist			LShoulder			LElbow			LWrist		
		X1	Y1	Z1	X2	Y2	Z2	X3	Y3	Z3	X4	Y4	Z4	X5	Y5	Z5	X6	Y6	Z6	X7	Y7	Z7	X8	Y8	Z8	X9	Y9	Z9	X10	Y10	Z10	X11	Y11	Z11	X12	Y12	Z12	X13	Y13	Z13	X14	Y14	Z14	X15	Y15	Z15	X16	Y16	Z16	X17	Y17	Z17	X18	Y18	Z18	X19	Y19	Z19	X20	Y20	Z20	X21	Y21	Z21	X22	Y22	Z22
99	3.320886075949367	0.9192091088235096	-0.511992025044309	0.0	0.9201581559687751	-0.5128706152713075	0.0	0.9426549557753503	-0.6142216803171913	0.0	0.926395000092752	-0.7199291209954325	0.0	0.9534663387025826	-0.7538956384536349	0.0	0.9468927038367652	-0.7561065080245396	0.0	0.9165910443745628	-0.7367246257566674	0.0	0.9179126027232717	-0.5114127465673086	0.0	0.9403052467887831	-0.6132504738664268	0.0	0.922256286670514	-0.71585885239878	0.0	0.958251724930853	-0.7503936591617337	0.0	0.9514792397274014	-0.745317712304295	0.0	0.9076815668709544	-0.7332469964204351	0.0	0.964028056628316	-0.37285743210982425	0.0	1.0038365517410563	-0.31499751967068457	0.0	1.001260325695909	-0.34723327514956603	0.0	0.9565314788947636	-0.3870906290417875	0.0	0.9225198877279699	-0.45039470083246097	0.0	0.9110095422065727	-0.5137953841295085	0.0	0.9500440367291676	-0.38426564700389776	0.0	0.9181857276074644	-0.44405158385627047	0.0	0.9060840954204558	-0.5028652307604073	0.0
100	3.354430379746835	0.9196801417163073	-0.4789089894633117	0.0	0.9202381942496629	-0.47929230028481057	0.0	0.9408188247346448	-0.5832104250412897	0.0	0.9278625166104887	-0.6900895591123264	0.0	0.9551766433696199	-0.7271093735026202	0.0	0.9479132451302893	-0.729169458868432	0.0	0.9192349986071915	-0.7075206898275587	0.0	0.9187981744793132	-0.47811175456882	0.0	0.9391091616269148	-0.5824723236759689	0.0	0.9242978758561938	-0.6869538639285714	0.0	0.958714665259361	-0.7238726854943324	0.0	0.9523921133122404	-0.7193598822537808	0.0	0.9102797672038897	-0.7057749347119461	0.0	0.9614883755727063	-0.33991370322809994	0.0	1.0035302620568125	-0.2821218047877091	0.0	0.9990534856391149	-0.31521351478101056	0.0	0.9534018922967193	-0.3529527859379342	0.0	0.9206091127430763	-0.4154657584252634	0.0	0.9154694592531453	-0.4788556010774169	0.0	0.9493918319423275	-0.3511202547702689	0.0	0.9202971830414453	-0.4097801233157067	0.0	0.9153489536268221	-0.46943148558766007	0.0
101	3.3879746835443036	0.9200209005563793	-0.4492252432746789	0.0	0.9203735845646945	-0.44907513258384474	0.0	0.9398561212339845	-0.5551346001012737	0.0	0.9287935725955094	-0.6629887814355725	0.0	0.9568788838699528	-0.7018235681958516	0.0	0.9490340755358662	-0.7038378801571912	0.0	0.9212874507437964	-0.6805967229654453	0.0	0.9194181684564	-0.44812756604500315	0.0	0.9385731282325757	-0.5545700599911833	0.0	0.9259249316456923	-0.6606754442996854	0.0	0.9592861886475397	-0.69918237727518	0.0	0.9534290274839278	-0.6949291977649192	0.0	0.9126711118446679	-0.6801515348555744	0.0	0.9584996263489681	-0.31027497188647135	0.0	1.0029947700674315	-0.2526895113793118	0.0	0.9965985533137339	-0.28683508689744996	0.0	0.9503746907214815	-0.32217340242089243	0.0	0.9198719890517457	-0.3842987438355053	0.0	0.9218695899630427	-0.44736553136644747	0.0	0.9480359416206775	-0.3212530831804405	0.0	0.9219263869379621	-0.37932436730482244	0.0	0.9239027863487937	-0.4397229988455417	0.0
102	3.421518987341772	0.9201707212844984	-0.4234811539335464	0.0	0.9205577948912842	-0.42283308550553633	0.0	0.9398267711361625	-0.5306528348285956	0.0	0.9292951813593838	-0.6394607204165743	0.0	0.9582212888592512	-0.6789932112219187	0.0	0.949986677453293	-0.6810032024174044	0.0	0.9225667795031357	-0.6569103856871684	0.0	0.9196316687434389	-0.42208040557862864	0.0	0.9386422149782527	-0.530225910460207	0.0	0.9269984259965046	-0.6377600271396049	0.0	0.9598335983010525	-0.676921610426179	0.0	0.9543344956283767	-0.6728393003777344	0.0	0.9145361769477013	-0.657132655038183	0.0	0.9552701912765084	-0.2846583135617688	0.0	1.0023206320880855	-0.22745615766667454	0.0	0.9939350173790011	-0.26277889563642753	0.0	0.9476208937510344	-0.29537711621873897	0.0	0.920448227675002	-0.3573291510183963	0.0	0.9296138725316776	-0.41938539841067796	0.0	0.9459598510198122	-0.29534491134338237	0.0	0.9228666844628892	-0.3535518692588695	0.0	0.9313713021083005	-0.41465796771273056	0.0
103	3.4550632911392403	0.9200223714180024	-0.4018396495152983	0.0	0.920670336459195	-0.40076139284012685	0.0	0.940568680485068	-0.5100575179879052	0.0	0.9295608719898738	-0.6197401837981134	0.0	0.9590305208049099	-0.6592391907022516	0.0	0.950594700468339	-0.6612361485104717	0.0	0.9230831258574242	-0.6367504397335271	0.0	0.9193433989333227	-0.4001540149160956	0.0	0.9391768486644376	-0.5096916606634321	0.0	0.9276025748559074	-0.6184002942713408	0.0	0.9602197981421574	-0.6574361914858992	0.0	0.9548857811373628	-0.6535387777964761	0.0	0.9157193418483648	-0.6370639984967386	0.0	0.9520027173437946	-0.26330192149279896	0.0	1.0014535090654846	-0.20643974480728927	0.0	0.9911756452140289	-0.24296721062557985	0.0	0.9452064268839468	-0.2727186889036969	0.0	0.9222214651158288	-0.3344046584966809	0.0	0.9385853602749983	-0.3944251646074534	0.0	0.9432941399431122	-0.27362821119826236	0.0	0.9232719847074912	-0.33279402860247115	0.0	0.9384564705316831	-0.3945901606714897	0.0
104	3.488607594936709	0.9194895419808871	-0.3842751774494198	0.0	0.9205405200925407	-0.3828735654761503	0.0	0.9418177304467298	-0.493400038328875	0.0	0.9297800146343129	-0.6037796240149882	0.0	0.9594849657903567	-0.6429864730032506	0.0	0.9509442501997993	-0.6449176248835017	0.0	0.9230175507297257	-0.6201501511931949	0.0	0.9185234467388069	-0.3823153677837557	0.0	0.9399824277406197	-0.49297529005279594	0.0	0.9279534950525512	-0.602554592087018	0.0	0.960475551932796	-0.6410108893574116	0.0	0.955108841353096	-0.6373139909093862	0.0	0.9162772860461158	-0.6202024281325118	0.0	0.9488919456186405	-0.24616750046099375	0.0	1.0003116174996416	-0.189232093306633	0.0	0.9885560075210876	-0.22689036398076437	0.0	0.9431389691950581	-0.25410910017684113	0.0	0.92488196776632	-0.31503733157954616	0.0	0.9488459443465697	-0.37162780237871373	0.0	0.9403154583315729	-0.2560951276372989	0.0	0.9236865757494027	-0.31706484356838355	0.0	0.9463655829741502	-0.37929745635002365	0.0
105	3.522151898734177	0.9185959887923719	-0.37067551084594264	0.0	0.9200493726791826	-0.36907141655556835	0.0	0.9432699670433553	-0.48056906955314277	0.0	0.930084621186624	-0.5914837288087109	0.0	0.9599414629276957	-0.6304994266827298	0.0	0.9513030040561428	-0.6322806936503433	0.0	0.9226535173865308	-0.6072015452764566	0.0	0.9172818175772226	-0.36844930486767424	0.0	0.9408334761767535	-0.47997991870093576	0.0	0.9282817444209123	-0.5902025430018641	0.0	0.9607518835368275	-0.6279890538324607	0.0	0.9552670670000984	-0.6244577961257058	0.0	0.9164700058447491	-0.606839709107372	0.0	0.9461159917918889	-0.23309522223003984	0.0	0.998915963157126	-0.1753456862663164	0.0	0.9864237658028243	-0.21401013372527938	0.0	0.941389853870992	-0.23937454962853194	0.0	0.9280043004342181	-0.298681539913619	0.0	0.9601995216864292	-0.34998208370918416	0.0	0.9374193360900731	-0.24263487297998992	0.0	0.9248777669361531	-0.30609705380548935	0.0	0.9560267751583583	-0.3677487314052588	0.0
106	3.5556962025316454	0.9175235816717164	-0.3609376115234204	0.0	0.9191875158406807	-0.3591934772386778	0.0	0.944633000503851	-0.47138397390196446	0.0	0.9305394420292867	-0.5828187747496829	0.0	0.9606882195274354	-0.6218342902664563	0.0	0.9519176838668305	-0.6233941892440459	0.0	0.9222500200260306	-0.5980871661278393	0.0	0.9159597181128268	-0.35845156291203667	0.0	0.9415622452899685	-0.47060652506588596	0.0	0.9287390405295738	-0.5814106913630193	0.0	0.961160212335852	-0.6186802056708546	0.0	0.9556810373819459	-0.61524975449704	0.0	0.9166129348441714	-0.5972080209877967	0.0	0.9437714597301349	-0.22388019506831988	0.0	0.9973632495608624	-0.16447677554636783	0.0	0.9850671101784907	-0.20401198953581592	0.0	0.9398702714793942	-0.2283357873895825	0.0	0.9311204287297402	-0.28497192402270866	0.0	0.971880424414291	-0.32858057522417955	0.0	0.9350309128506447	-0.23307184432353775	0.0	0.927443825070353	-0.29915360823733295	0.0	0.9674747093401667	-0.35789666574256174	0.0
107	3.589240506329114	0.916545614549404	-0.3549901420520472	0.0	0.9180365788732656	-0.35307808935131607	0.0	0.9456971419114268	-0.46567882383013204	0.0	0.9311462006591332	-0.5778083788922422	0.0	0.9618125454202222	-0.6168721671859725	0.0	0.9528694248494487	-0.6181865941849018	0.0	0.9219418543314055	-0.5929298849077049	0.0	0.9150252019632185	-0.3522470716642916	0.0	0.942139794635778	-0.46479154581482957	0.0	0.9293564358587406	-0.5762780916483545	0.0	0.961704052580496	-0.6132257717285244	0.0	0.956543887175507	-0.6098472676070144	0.0	0.916909175226752	-0.5913810256096211	0.0	0.9418335893035602	-0.21831511093652473	0.0	0.9956724206620811	-0.156605801098388	0.0	0.9844706040627441	-0.19682647437114878	0.0	0.9383816577941552	-0.22093518043732088	0.0	0.9338050017892643	-0.2738201613893086	0.0	0.9826121649118064	-0.3069705812991478	0.0	0.933455836787968	-0.22720420833853042	0.0	0.9314094963136215	-0.29499210685629346	0.0	0.9797264304357965	-0.3472777041933695	0.0
108	3.622784810126582	0.9158696462713081	-0.35277068974163095	0.0	0.9167282968472674	-0.35064224826666845	0.0	0.9463659481115371	-0.4633822236323252	0.0	0.9318485947968035	-0.576473950817989	0.0	0.9632242631163846	-0.6155008647148994	0.0	0.9540892251177109	-0.6165938155132482	0.0	0.9217668241785044	-0.59169708224862	0.0	0.9147721829687984	-0.3497797994480981	0.0	0.9426320017611387	-0.46250838908188546	0.0	0.930081162687873	-0.5748757767128961	0.0	0.9623520408304874	-0.6116669987320491	0.0	0.9578584850270181	-0.6083010621335103	0.0	0.9174273022107541	-0.5893422569456529	0.0	0.9402081195952797	-0.2162796105698544	0.0	0.9936956253450488	-0.1519500662218832	0.0	0.984232496920894	-0.19261023984673556	0.0	0.9366413861814079	-0.21737582139490375	0.0	0.9357450015838628	-0.2653440956603702	0.0	0.9910123098955067	-0.2854483132004505	0.0	0.9327936796251678	-0.2249344092445395	0.0	0.9362012700469542	-0.29230943197699405	0.0	0.991220576841044	-0.33435071060831395	0.0
109	3.6563291139240506	0.9155495048981982	-0.3542369333736111	0.0	0.9154454366437961	-0.3519245131154562	0.0	0.9466299058836523	-0.464589567498446	0.0	0.9325659106441705	-0.5788109624896767	0.0	0.9647555319299007	-0.6177828424928405	0.0	0.9554351353121063	-0.6186976317303412	0.0	0.9217668502918616	-0.5942420204922082	0.0	0.9151483161601682	-0.35101748166035746	0.0	0.9430731315777153	-0.46380359373751223	0.0	0.9308424621376978	-0.5772402041437732	0.0	0.9630809723688557	-0.6140831817347325	0.0	0.9594724448870786	-0.6106492504477679	0.0	0.9181445805386832	-0.5911087700147611	0.0	0.9388047278358288	-0.21779205570898488	0.0	0.991170523605443	-0.1508264309378664	0.0	0.9837377459462147	-0.19171606131124505	0.0	0.9344309314395558	-0.21805652757036179	0.0	0.9367728200732989	-0.2597166854176025	0.0	0.9959657391925593	-0.2650719000654485	0.0	0.9329647721051562	-0.22635504288393096	0.0	0.9410612681700983	-0.29026797606129473	0.0	1.0004018059086008	-0.3192402278440212	0.0
